<?xml version="1.0" encoding="UTF-8" standalone="no"?> <svg id="color" xmlns="http://www.w3.org/2000/svg" viewBox="0 0 340 340"><title>27_fist</title><path d="M215.063,192.71,100.939,213.236s1.053,10.4,1.932,35.741v34.329a154.474,154.474,0,0,0,104.008,4.542c-.867-19.278-1.762-46.877-.408-57.708C208.644,212.753,215.063,192.71,215.063,192.71Z" style="fill:#ffcac0"/><path d="M171.048,217.434a2.8,2.8,0,0,0,.05,5.494,119.551,119.551,0,0,0,36.293,1.046c1.314-7.7,3.194-15.4,4.766-21.234A162.009,162.009,0,0,1,171.048,217.434Z" style="fill:#e5837c"/><path d="M128.174,216.87a102.939,102.939,0,0,1-16.2-5.62l-11.04,1.986s1.57,25.308,1.932,35.741v34.329q6.045,2.477,12.342,4.439c-1.426-10.547-2.742-22.217-3.375-32.984-1.706-29,10.1-31.99,10.9-32.159,1.93-.383,3.748-.781,5.406-1.173A2.347,2.347,0,0,0,128.174,216.87Z" style="fill:#e5837c"/><path d="M91.057,58.151a48.573,48.573,0,0,0-14.75,34.778v64.346a77.04,77.04,0,0,0,7.622,33.846,67.175,67.175,0,0,0,17.01,22.115s17.351,6.371,66.392,6.371l59.908-59.74,5.192-46.366Z" style="fill:#ffcac0"/><path d="M232.431,113.5,91.057,58.151a48.573,48.573,0,0,0-14.75,34.778v17.579a26.595,26.595,0,0,0,22.541,26.839c26.5,4.286,47.293,24.6,53.888,44.258a9.189,9.189,0,0,0,8.683,6.344h0a9.124,9.124,0,0,0,9.039-7.928c1.342-10,5.372-26.519,17.441-31.719,14.734-6.348,30.553-6.428,41.558-8.242Z" style="fill:#e5837c"/><path d="M122.782,60.971l-6.526-4.617a10.822,10.822,0,0,0-6.248-1.986H99.259a10.818,10.818,0,0,0-10.808,11.3L90.225,105.6s.266,3.728.907,8.3c0,0,31.65,7.6,31.65,2.51Z" style="fill:#ffcac0"/><path d="M116.256,56.354a10.868,10.868,0,0,0-2.076-1.145,15.728,15.728,0,0,0-4.126,11.06l-1.077,45.85a2.976,2.976,0,0,1-3.2,2.9L91.133,113.9c.189,1.352.41,2.775.667,4.2.789,4.369,4.43,8.022,8.87,8.022h13.742c5.092,0,9.072-4.6,9.072-9.69h0l-.7-55.461Z" style="fill:#e5837c"/><path d="M148.062,53.207H131.983a15.353,15.353,0,0,0-15.291,12.842q-.078.523-.134,1.076v52.268s-.943,13.258,20.271,13.258S159.622,111.2,159.622,111.2l-2.13-48.967A9.439,9.439,0,0,0,148.062,53.207Z" style="fill:#ffcac0"/><path d="M159.622,111.2l-2.13-48.967a9.439,9.439,0,0,0-9.43-9.028h-.127a25.54,25.54,0,0,0-1.187,8.385c.149,6.393-.831,43.513-1.175,56.194a4.421,4.421,0,0,1-4.369,4.3l-18.422.234c-3.633-.511-5.38-1.772-6.224-2.927v1.237s-1.146,12.548,20.21,12.522C158.18,133.126,159.622,111.2,159.622,111.2Z" style="fill:#e5837c"/><path d="M202.122,47.116l21.264,1.525a6.593,6.593,0,0,1,6.178,6.105l2.867,52.328q-7.7,32.5-38.4,37.3V53.207C194.235,49.576,198.349,46.822,202.122,47.116Z" style="fill:#ffcac0"/><path d="M194.026,53.207h0a16.039,16.039,0,0,0-13.853-7.957h-9.924a16.039,16.039,0,0,0-16.038,16.038v50.471s-.293,8.52,2.578,15.726c0,0,5.907,9.855,12.77,9.855h2.383l23.236-1.856Z" style="fill:#ffcac0"/><path d="M194.026,53.207a16,16,0,0,0-4.609-5.014,22.637,22.637,0,0,0-1.658,8.722l.121,79.152,7.3-.583Z" style="fill:#e5837c"/><path d="M194.026,137.34h1.627l18.072-.4q13.876-9.487,18.706-29.867l-1.787-32.611-36.618-4.091Z" style="fill:#e5837c"/><path d="M194.026,144.374q30.709-4.8,38.405-37.3l-.006-.1-38.4-22.512Z" style="fill:#e5837c"/><path d="M194.026,135.88l.241-65.481-11.526-1.288a2.851,2.851,0,0,0-2.9,1.617c-3.251,6.958-13.087,32.42,4.736,54.748a1.511,1.511,0,0,1-.616,2.331l-.037.016a43.015,43.015,0,0,1-27.126-.341c2.1,5.28,6.176,10.3,13.04,10.3h2.558l12.6-.438Z" style="fill:#e5837c"/><path d="M185.232,78.216l29.831,3,15.259,2.18,12.727,1.566a14.742,14.742,0,0,1,11.821,8.925,113.747,113.747,0,0,1,8.735,47.526,36.905,36.905,0,0,1-5.839,18.343c-7.247,11.317-21.666,31.841-36.716,41.949,0,0-24.3,17.267-53.719,17.906,0,0-15.225-44.736,11.339-73.076a42.2,42.2,0,0,1,15.356-10.651c5.251-1.935,10.175-1.949,14.987-1.949a33.8,33.8,0,0,0-.639-11.512S174.249,118.037,185.232,78.216Z" style="fill:#ffcac0"/><path d="M185.557,77l-.042.1a13.188,13.188,0,0,0,5.817,16.572c4.422,2.445,10.424,4.564,18.569,5.833,0,0,5-5.615,5.162-18.29Z" style="fill:#fff0ee"/><path d="M208.373,122.419a34.011,34.011,0,0,0,14.569-1.563,1.89,1.89,0,0,1,2.383,2.508c-1.782,4.349-6.114,10.567-16.312,10.567Z" style="fill:#e5837c"/></svg>