<?xml version="1.0" encoding="UTF-8" standalone="no"?> <svg xmlns="http://www.w3.org/2000/svg" xmlns:xlink="http://www.w3.org/1999/xlink" viewBox="0 0 64 64"><defs><style>.cls-1{fill:url(#linear-gradient);}</style><linearGradient id="linear-gradient" x1="2" y1="32" x2="61.99" y2="32" gradientUnits="userSpaceOnUse"><stop offset="0" stop-color="#17a6d7"/><stop offset="1" stop-color="#9d31fe"/></linearGradient></defs><g id="Layer_42" data-name="Layer 42"><path class="cls-1" d="M61.77,23.6a.17.17,0,0,0,0-.05.13.13,0,0,0,0-.06.84.84,0,0,0-.06-.14,1.34,1.34,0,0,0-.07-.18,1.62,1.62,0,0,0-.1-.18l-.1-.15-.14-.15-.13-.13a.79.79,0,0,0-.15-.12.91.91,0,0,0-.16-.11l-.17-.08a1,1,0,0,0-.18-.08l-.18-.05-.19,0-.19,0h-.2l-.2,0-.15,0,0,0h-.06L34.7,29.3,41.87,4.74a.13.13,0,0,0,0-.06s0,0,0,0,0-.09,0-.14a1.49,1.49,0,0,0,0-.21,1.21,1.21,0,0,0,0-.19,1.36,1.36,0,0,0,0-.2,1.29,1.29,0,0,0,0-.19,1.21,1.21,0,0,0-.05-.18l-.07-.18-.09-.17A.91.91,0,0,0,41.56,3l-.11-.15-.14-.14-.15-.12A.91.91,0,0,0,41,2.49l-.17-.1-.19-.08-.13-.05h-.06l-.05,0C34.48.87,27.92,5.76,25.77,13.12a14.85,14.85,0,0,0,1,11.58,9.67,9.67,0,0,0,4,3.78l-.63,2.15-23.83,7a.16.16,0,0,1-.15,0,.16.16,0,0,1-.08-.13,3.1,3.1,0,0,1,.61-2.62A2.92,2.92,0,0,1,9,33.66l9.41-.18a2,2,0,0,0-.07-4l-9.42.18a6.94,6.94,0,0,0-5.33,2.71,7.09,7.09,0,0,0-1.36,6,4.17,4.17,0,0,0,4.05,3.27,4.16,4.16,0,0,0,1.2-.18l21.38-6.24L22.57,56.57a4.15,4.15,0,0,0,3.09,5.25,6.85,6.85,0,0,0,1.56.18,7.15,7.15,0,0,0,4.41-1.54,6.94,6.94,0,0,0,2.71-5.33l.18-9.42a2,2,0,0,0-2-2h0a2,2,0,0,0-2,2l-.18,9.41a2.92,2.92,0,0,1-1.17,2.26,3.1,3.1,0,0,1-2.62.61.16.16,0,0,1-.13-.08.16.16,0,0,1,0-.15l7-23.83,2.15-.63a9.67,9.67,0,0,0,3.78,4,13.46,13.46,0,0,0,6.78,1.73,17.21,17.21,0,0,0,4.8-.7C58.24,36.08,63.12,29.52,61.77,23.6Zm-31.52-.93a11,11,0,0,1-.64-8.42C30.86,10,34.09,6.7,37.3,6.1L31.92,24.53A6.07,6.07,0,0,1,30.25,22.67Zm19.5,11.72a11,11,0,0,1-8.42-.64,6.07,6.07,0,0,1-1.86-1.67L57.9,26.7C57.3,29.91,54,33.14,49.75,34.39Z"/></g></svg>